<?xml version="1.0" encoding="utf-8"?>
<!-- Generator: Adobe Illustrator 27.5.0, SVG Export Plug-In . SVG Version: 6.00 Build 0)  -->
<svg version="1.1" xmlns="http://www.w3.org/2000/svg" xmlns:xlink="http://www.w3.org/1999/xlink" x="0px" y="0px"
	 viewBox="0 0 500 500" style="enable-background:new 0 0 500 500;" xml:space="preserve">
<g id="BACKGROUND">
	<rect style="fill:#FFFFFF;" width="500" height="500"/>
</g>
<g id="OBJECTS">
	<g>
		<path style="fill:#DBCCFF;" d="M437.819,311.511c4.117-8.141,6.44-17.344,6.44-27.091c0-33.198-26.913-60.111-60.111-60.111
			c-26.778,0-49.463,17.511-57.237,41.706c-22.924,0.977-41.257,19.677-41.637,42.751h-25.182
			c3.164-9.208,4.888-19.086,4.888-29.369c0-49.902-40.453-90.355-90.355-90.355c-41.109,0-75.784,27.464-86.734,65.038
			c-31.251,1.307-56.413,27.262-56.413,58.82c0,32.386,26.498,58.883,58.883,58.883h61.562
			c7.146,14.575,22.151,24.673,39.401,24.673h231.271c24.115,0,43.845-19.73,43.845-43.845
			C466.44,333.844,454.488,317.733,437.819,311.511z"/>
		<path style="fill:#DBCCFF;" d="M90.906,212.322c11.167,0,20.304-9.137,20.304-20.304v0c0-11.167-9.137-20.304-20.304-20.304
			c-11.168,0-20.305,9.137-20.305,20.304v0C70.601,203.185,79.738,212.322,90.906,212.322z"/>
		
			<ellipse transform="matrix(0.9735 -0.2288 0.2288 0.9735 -36.8956 78.9893)" style="fill:#DBCCFF;" cx="322.224" cy="198.621" rx="9.856" ry="9.856"/>
		<path style="fill:#DBCCFF;" d="M456.92,305.392c3.629,0,6.571-2.942,6.571-6.57c0-3.629-2.942-6.571-6.571-6.571
			c-3.629,0-6.571,2.942-6.571,6.571C450.35,302.451,453.292,305.392,456.92,305.392z"/>
		<path style="fill:#DBCCFF;" d="M123.282,128.162c3.629,0,6.571-2.942,6.571-6.57c0-3.629-2.942-6.571-6.571-6.571
			c-3.629,0-6.571,2.942-6.571,6.571C116.712,125.221,119.654,128.162,123.282,128.162z"/>
		<path style="fill:#DBCCFF;" d="M35.995,269.254c3.402,0,6.16-2.758,6.16-6.16c0-3.402-2.758-6.16-6.16-6.16
			c-3.402,0-6.16,2.758-6.16,6.16C29.835,266.496,32.593,269.254,35.995,269.254z"/>
		<path style="fill:#DBCCFF;" d="M54.475,210.12c3.402,0,6.16-2.758,6.16-6.16c0-3.402-2.758-6.16-6.16-6.16
			c-3.402,0-6.16,2.758-6.16,6.16C48.315,207.362,51.072,210.12,54.475,210.12z"/>
	</g>
	<path style="fill:none;stroke:#2D1A14;stroke-width:0.537;stroke-miterlimit:10;" d="M341.248,112.061
		c0,1.335-1.082,2.417-2.417,2.417c-1.335,0-2.417-1.082-2.417-2.417c0-1.335,1.082-2.417,2.417-2.417
		C340.166,109.644,341.248,110.726,341.248,112.061z"/>
	<path style="fill:none;stroke:#2D1A14;stroke-width:0.537;stroke-miterlimit:10;" d="M309.835,83.869
		c0,1.335-1.082,2.417-2.417,2.417c-1.335,0-2.417-1.082-2.417-2.417c0-1.335,1.082-2.417,2.417-2.417
		C308.753,81.453,309.835,82.535,309.835,83.869z"/>
	<path style="fill:none;stroke:#2D1A14;stroke-width:0.537;stroke-miterlimit:10;" d="M470.121,276.375
		c0,1.335-1.082,2.417-2.417,2.417c-1.335,0-2.417-1.082-2.417-2.417c0-1.335,1.082-2.417,2.417-2.417
		C469.039,273.958,470.121,275.04,470.121,276.375z"/>
	<path style="fill:none;stroke:#2D1A14;stroke-width:0.537;stroke-miterlimit:10;" d="M390.38,208.716
		c0,1.335-1.082,2.417-2.417,2.417c-1.335,0-2.417-1.082-2.417-2.417c0-1.335,1.082-2.417,2.417-2.417
		C389.298,206.299,390.38,207.381,390.38,208.716z"/>
	<path style="fill:none;stroke:#2D1A14;stroke-width:0.537;stroke-miterlimit:10;" d="M120.144,85.744
		c0,1.335-1.082,2.417-2.417,2.417c-1.335,0-2.417-1.082-2.417-2.417c0-1.335,1.082-2.417,2.417-2.417
		C119.062,83.327,120.144,84.41,120.144,85.744z"/>
	<path style="fill:none;stroke:#2D1A14;stroke-width:0.537;stroke-miterlimit:10;" d="M187.269,130.852
		c0,1.335-1.082,2.417-2.417,2.417c-1.335,0-2.417-1.082-2.417-2.417c0-1.335,1.082-2.417,2.417-2.417
		C186.187,128.436,187.269,129.518,187.269,130.852z"/>
	<path style="fill:none;stroke:#2D1A14;stroke-width:0.537;stroke-miterlimit:10;" d="M259.917,64.417
		c0,1.335-1.082,2.417-2.417,2.417c-1.335,0-2.417-1.082-2.417-2.417c0-1.335,1.082-2.417,2.417-2.417
		C258.835,62,259.917,63.082,259.917,64.417z"/>
	<path style="fill:none;stroke:#2D1A14;stroke-width:0.537;stroke-miterlimit:10;" d="M146.644,140.246
		c0,1.335-1.082,2.417-2.417,2.417c-1.335,0-2.417-1.082-2.417-2.417c0-1.335,1.082-2.417,2.417-2.417
		C145.562,137.829,146.644,138.911,146.644,140.246z"/>
	<path style="fill:none;stroke:#2D1A14;stroke-width:0.537;stroke-miterlimit:10;" d="M32.756,216.771
		c0,1.335-1.082,2.417-2.417,2.417c-1.335,0-2.417-1.082-2.417-2.417c0-1.335,1.082-2.417,2.417-2.417
		C31.674,214.354,32.756,215.436,32.756,216.771z"/>
	<path style="fill:none;stroke:#2D1A14;stroke-width:0.537;stroke-miterlimit:10;" d="M136.254,187.774
		c0,1.335-1.082,2.417-2.417,2.417c-1.335,0-2.417-1.082-2.417-2.417c0-1.335,1.082-2.417,2.417-2.417
		C135.172,185.358,136.254,186.44,136.254,187.774z"/>
	<path style="fill:none;stroke:#2D1A14;stroke-width:0.537;stroke-miterlimit:10;" d="M94.777,391.555
		c0,1.335-1.082,2.417-2.417,2.417c-1.335,0-2.417-1.082-2.417-2.417c0-1.335,1.082-2.417,2.417-2.417
		C93.695,389.139,94.777,390.221,94.777,391.555z"/>
	<path style="fill:none;stroke:#2D1A14;stroke-width:0.537;stroke-miterlimit:10;" d="M466.899,422.163
		c0,1.335-1.082,2.417-2.417,2.417c-1.335,0-2.417-1.082-2.417-2.417c0-1.335,1.082-2.417,2.417-2.417
		C465.817,419.746,466.899,420.828,466.899,422.163z"/>
	<path style="fill:#BFB8FF;" d="M470.959,448.708H25.041c-1.327,0-2.403-1.076-2.403-2.403v-1.548c0-1.327,1.076-2.403,2.403-2.403
		h445.918c1.327,0,2.403,1.076,2.403,2.403v1.548C473.362,447.633,472.286,448.708,470.959,448.708z"/>
	<path style="fill:none;stroke:#2D1A14;stroke-width:0.537;stroke-miterlimit:10;" d="M77.184,243.622
		c0,3.559-2.885,6.445-6.445,6.445c-3.559,0-6.445-2.885-6.445-6.445c0-3.559,2.885-6.445,6.445-6.445
		C74.299,237.177,77.184,240.063,77.184,243.622z"/>
	<path style="fill:none;stroke:#2D1A14;stroke-width:0.537;stroke-miterlimit:10;" d="M450.792,408.47
		c0,3.559-2.885,6.445-6.445,6.445c-3.559,0-6.445-2.885-6.445-6.445s2.885-6.445,6.445-6.445
		C447.906,402.025,450.792,404.911,450.792,408.47z"/>
	<path style="fill:none;stroke:#2D1A14;stroke-width:0.537;stroke-miterlimit:10;" d="M72.223,400.415
		c0,3.559-2.885,6.445-6.445,6.445c-3.559,0-6.445-2.885-6.445-6.445s2.885-6.445,6.445-6.445
		C69.338,393.971,72.223,396.856,72.223,400.415z"/>
	<path style="fill:none;stroke:#2D1A14;stroke-width:0.537;stroke-miterlimit:10;" d="M462.873,228.852
		c0,3.559-2.885,6.445-6.445,6.445s-6.445-2.885-6.445-6.445s2.885-6.445,6.445-6.445S462.873,225.293,462.873,228.852z"/>
	<path style="fill:none;stroke:#2D1A14;stroke-width:0.537;stroke-miterlimit:10;" d="M183.378,104.007
		c0,3.559-2.885,6.445-6.445,6.445c-3.559,0-6.445-2.885-6.445-6.445c0-3.559,2.885-6.445,6.445-6.445
		C180.493,97.562,183.378,100.448,183.378,104.007z"/>
	<path style="fill:#2D1A14;" d="M390.091,442.553H135.316c-10.875,0-19.692-8.816-19.692-19.692v-149.88
		c0-10.876,8.816-19.692,19.692-19.692h254.776c10.876,0,19.692,8.816,19.692,19.692v149.88
		C409.783,433.736,400.967,442.553,390.091,442.553z"/>
	<rect x="126.205" y="265.871" style="fill:#7171EA;" width="273.374" height="163.449"/>
	<path style="opacity:0.31;fill:#FFFFFF;" d="M302.234,411.337c-3.271-18.939-3.548-40.954,8.132-57.286
		c5.868-8.204,14.184-13.915,23.67-17.201c13.853-4.798,26.556-2.013,39.41,4.296c6.609,3.244,12.94,7.038,19.637,10.103
		c2.14,0.979,4.306,1.788,6.496,2.473v-87.851H250.715c-5.358,10.707-7.788,23.994-10.668,33.853
		c-2.315,7.928-4.87,16.071-9.158,23.191c-5.174,8.59-11.96,16.527-19.538,23.082c-14.41,12.465-32.079,19.617-50.911,21.882
		c-11.405,1.372-22.863,1.09-34.235-0.391v61.832h180.167C304.658,423.349,303.268,417.323,302.234,411.337z"/>
	<g>
		<path style="fill:#BFB8FF;" d="M415.929,443.387H100.996c-6.599,0-11.998-4.441-11.998-9.869l0,0
			c0-5.428,5.399-9.869,11.998-9.869h314.933c6.599,0,11.998,4.441,11.998,9.869l0,0
			C427.927,438.946,422.528,443.387,415.929,443.387z"/>
		<path style="opacity:0.33;fill:#2D1A14;" d="M415.929,443.387H100.996c-6.599,0-11.998-4.441-11.998-9.869l0,0
			c0-5.428,5.399-9.869,11.998-9.869h314.933c6.599,0,11.998,4.441,11.998,9.869l0,0
			C427.927,438.946,422.528,443.387,415.929,443.387z"/>
	</g>
	<path style="fill:none;stroke:#2D1A14;stroke-width:0.6818;stroke-miterlimit:10;" d="M190.018,436.406h-83.864
		c-1.757,0-3.194-1.437-3.194-3.194l0,0c0-1.757,1.437-3.194,3.194-3.194h83.864c1.757,0,3.194,1.437,3.194,3.194l0,0
		C193.211,434.969,191.774,436.406,190.018,436.406z"/>
	<g>
		<circle style="fill:#2D1A14;" cx="357.65" cy="434.66" r="4.699"/>
		<circle style="fill:#2D1A14;" cx="379.129" cy="434.66" r="4.699"/>
		<circle style="fill:#2D1A14;" cx="398.684" cy="434.66" r="4.699"/>
	</g>
	<g>
		<g>
			<path style="fill:#FFBD51;" d="M358.635,163.014c0,0-50.332-22.088-46.312-53.386c0,0-27.517-16.218-52.119-16.882V92.73
				c-0.08,0.002-0.156,0.006-0.236,0.008c-0.08-0.002-0.156-0.006-0.236-0.008v0.016c-24.603,0.664-48.589,14.045-48.589,14.045
				c4.02,31.298-49.842,56.223-49.842,56.223c-13.938,126.899,90.659,197.78,98.431,202.859v0.306c0,0,0.092-0.059,0.236-0.152
				c0.144,0.093,0.236,0.152,0.236,0.152v-0.306C267.975,360.794,372.573,289.914,358.635,163.014z"/>
			<path style="fill:#FFCC83;" d="M358.635,163.014c0,0-50.332-22.088-46.312-53.386c0,0-27.517-16.218-52.119-16.882V92.73
				c-0.08,0.002-0.156,0.006-0.236,0.008c-0.079-0.002-0.156-0.006-0.236-0.008v0.016c-1.068,0.029-2.135,0.083-3.2,0.158v270.785
				c1.531,1.08,2.629,1.811,3.2,2.185v0.306c0,0,0.092-0.059,0.236-0.152c0.144,0.093,0.236,0.152,0.236,0.152v-0.306
				C267.975,360.794,372.572,289.914,358.635,163.014z"/>
			<path style="fill:#F7A539;" d="M344.285,172.677c0,0-56.346-24.4-52.91-51.147c0,0-10.181-8.334-31.205-8.901v-0.014
				c-0.069,0.002-0.134,0.005-0.202,0.007c-0.068-0.001-0.133-0.005-0.202-0.007v0.014c-21.025,0.567-31.205,8.901-31.205,8.901
				c3.436,26.746-52.91,51.147-52.91,51.147c-11.91,108.443,77.474,169.015,84.115,173.355v0.261c0,0,0.079-0.05,0.202-0.13
				c0.123,0.079,0.202,0.13,0.202,0.13v-0.261C266.811,341.692,356.195,281.12,344.285,172.677z"/>
			<path style="fill:#FFBD51;" d="M326.591,184.592c0,0-44.522-19.28-41.807-40.414c0,0-8.044-6.585-24.657-7.034v-0.011
				c-0.054,0.001-0.105,0.004-0.16,0.005c-0.054-0.001-0.105-0.004-0.16-0.005v0.011c-16.612,0.448-24.656,7.034-24.656,7.034
				c2.715,21.134-41.807,40.414-41.807,40.414c-9.411,85.686,61.216,133.547,66.464,136.977v0.206c0,0,0.062-0.04,0.16-0.103
				c0.097,0.063,0.16,0.103,0.16,0.103v-0.206C265.375,318.139,336.002,270.278,326.591,184.592z"/>
			<path style="fill:#FFCC83;" d="M326.591,184.592c0,0-44.522-19.28-41.807-40.413c0,0-8.044-6.586-24.657-7.034v-0.011
				c-0.054,0.001-0.105,0.004-0.16,0.005c-0.054-0.001-0.106-0.004-0.159-0.005v0.011c-1.052,0.029-2.068,0.082-3.051,0.156v182.158
				c1.505,1.084,2.563,1.791,3.051,2.11v0.207c0,0,0.062-0.04,0.159-0.103c0.098,0.063,0.16,0.103,0.16,0.103v-0.207
				C265.375,318.139,336.002,270.278,326.591,184.592z"/>
		</g>
	</g>
	<g>
		<path style="fill:#FFFFFF;" d="M288.052,275.569h-57.924c-5.357,0-9.7-4.343-9.7-9.7v-54.702c0-5.357,4.343-9.7,9.7-9.7h57.924
			c5.357,0,9.7,4.343,9.7,9.7v54.702C297.752,271.226,293.409,275.569,288.052,275.569z"/>
		
			<path style="fill:none;stroke:#FFFFFF;stroke-width:7.7868;stroke-linecap:round;stroke-linejoin:round;stroke-miterlimit:10;" d="
			M258.293,252.211L258.293,252.211c-8.915,0-16.208-7.294-16.208-16.208v-64.239c0-8.915,7.294-16.208,16.208-16.208l0,0
			c8.915,0,16.208,7.294,16.208,16.208v64.239C274.501,244.917,267.207,252.211,258.293,252.211z"/>
	</g>
	<g>
		
			<ellipse transform="matrix(0.9156 -0.402 0.402 0.9156 -72.6868 123.49)" style="fill:#2D1A14;" cx="257.882" cy="234.928" rx="9.297" ry="9.297"/>
		<polygon style="fill:#2D1A14;" points="257.882,237.296 262.653,245.559 267.423,253.822 257.882,253.822 248.341,253.822 
			253.111,245.559 		"/>
	</g>
	<g>
		<path style="fill:#A595FA;" d="M408.271,96.048c-16.185,16.499-59.774,11.549-59.774,11.549
			c7.357,51.696,59.774,75.344,59.774,75.344s53.521-23.648,60.878-75.344C469.149,107.597,424.456,112.546,408.271,96.048z"/>
		<path style="fill:#7171EA;" d="M408.569,66.363c-16.134,20.274-57.938,14.192-57.938,14.192
			c7.334,63.526,57.938,92.585,57.938,92.585s51.708-29.06,59.041-92.585C467.611,80.555,424.704,86.637,408.569,66.363z"/>
		<path style="fill:#8DDAE2;" d="M408.257,51.292c-14.558,20.274-52.277,14.192-52.277,14.192
			c6.617,63.526,52.277,92.585,52.277,92.585s45.66-29.06,52.278-92.585C460.534,65.483,422.815,71.566,408.257,51.292z"/>
		
			<text transform="matrix(0.9999 0.0095 -0.0095 0.9999 379.1293 111.6406)" style="fill:#FFFFFF; font-family:'Montserrat-ExtraBold'; font-size:28.4189px; letter-spacing:3;">SSL</text>
	</g>
	<g>
		<path style="fill:#8DDAE2;" d="M166.002,384.25H57.737c-3.266,0-5.914-2.648-5.914-5.914v-86.031c0-3.266,2.648-5.914,5.914-5.914
			h108.265c3.267,0,5.915,2.648,5.915,5.914v86.031C171.917,381.602,169.269,384.25,166.002,384.25z"/>
		<g>
			
				<ellipse transform="matrix(0.9239 -0.3827 0.3827 0.9239 -112.2941 57.4775)" style="fill:#FFFFFF;" cx="88.333" cy="311.009" rx="11.715" ry="11.715"/>
			<path style="fill:#FFFFFF;" d="M113.077,336.891C109.084,326.991,99.391,320,88.06,320s-21.024,6.991-25.017,16.891H113.077z"/>
		</g>
		<path style="fill:#FFFFFF;" d="M159.616,310.204h-41.079c-1.107,0-2.014-0.906-2.014-2.014l0,0c0-1.107,0.906-2.014,2.014-2.014
			h41.079c1.108,0,2.014,0.906,2.014,2.014l0,0C161.63,309.298,160.723,310.204,159.616,310.204z"/>
		<path style="fill:#FFFFFF;" d="M159.616,324.165h-41.079c-1.107,0-2.014-0.906-2.014-2.014l0,0c0-1.108,0.906-2.014,2.014-2.014
			h41.079c1.108,0,2.014,0.906,2.014,2.014l0,0C161.63,323.259,160.723,324.165,159.616,324.165z"/>
		<path style="fill:#FFFFFF;" d="M159.616,337.411h-41.079c-1.107,0-2.014-0.906-2.014-2.014l0,0c0-1.108,0.906-2.014,2.014-2.014
			h41.079c1.108,0,2.014,0.906,2.014,2.014l0,0C161.63,336.505,160.723,337.411,159.616,337.411z"/>
		<path style="fill:#FFFFFF;" d="M156.078,352.806H64.479c-1.108,0-2.014-0.906-2.014-2.014l0,0c0-1.107,0.906-2.014,2.014-2.014
			h91.599c1.107,0,2.014,0.906,2.014,2.014l0,0C158.092,351.9,157.186,352.806,156.078,352.806z"/>
		<path style="fill:#FFFFFF;" d="M156.078,366.767H64.479c-1.108,0-2.014-0.906-2.014-2.014l0,0c0-1.108,0.906-2.014,2.014-2.014
			h91.599c1.107,0,2.014,0.906,2.014,2.014l0,0C158.092,365.861,157.186,366.767,156.078,366.767z"/>
	</g>
	<g>
		<rect x="322.59" y="334.752" style="fill:#FFE1BD;" width="107.579" height="63.901"/>
		<polyline style="fill:none;stroke:#2D1A14;stroke-width:0.6818;stroke-miterlimit:10;" points="328.36,349.672 376.956,385.917 
			424.21,349.672 		"/>
		
			<line style="fill:none;stroke:#2D1A14;stroke-width:0.6818;stroke-miterlimit:10;" x1="329.165" y1="392.361" x2="358.162" y2="372.224"/>
	</g>
	
		<line style="fill:none;stroke:#2D1A14;stroke-width:0.6818;stroke-miterlimit:10;" x1="424.21" y1="392.361" x2="395.213" y2="372.224"/>
	<g>
		<circle style="fill:#8DDAE2;" cx="440.375" cy="328.289" r="19.153"/>
		
			<polyline style="fill:none;stroke:#FFFFFF;stroke-width:2.685;stroke-linecap:round;stroke-linejoin:round;stroke-miterlimit:10;" points="
			430.436,329.193 437.469,335.523 450.13,319.698 		"/>
	</g>
	<path style="fill:#D3D2FC;" d="M301.957,406.859h-79.741c-1.329,0-2.416-1.087-2.416-2.416l0,0c0-1.329,1.087-2.416,2.416-2.416
		h79.741c1.329,0,2.416,1.087,2.416,2.416l0,0C304.374,405.772,303.286,406.859,301.957,406.859z"/>
	<g>
		<g>
			<g>
				<path style="fill:#8B7FF7;" d="M144.208,177.902l-103.861,0.093c-6.428,0.006-11.573-5.072-11.492-11.341l0.667-51.847
					c0.081-6.269,5.357-11.356,11.784-11.362l103.861-0.093c6.428-0.006,11.573,5.072,11.492,11.341l-0.667,51.847
					C155.912,172.809,150.636,177.896,144.208,177.902z"/>
				<path style="fill:#2D1A14;" d="M76.149,119.771c3.574,3.985,8.035,7.142,13.282,8.685c6.346,1.866,13.027,1.292,19.383-0.431
					c1.434-0.388,3.142,0.475,3.466,1.93c1.159,5.205,3.755,9.801,7.628,13.528c7.159,6.889,17.407,10.313,27.254,11.587
					c2.945,0.381,5.952,0.589,8.97,0.594l0.527-40.972c0.081-6.269-5.065-11.347-11.492-11.341l-78.256,0.07
					C68.982,109.427,71.957,115.096,76.149,119.771z"/>
				<g>
					
						<path style="fill:none;stroke:#FFFFFF;stroke-width:0.7474;stroke-linecap:round;stroke-linejoin:round;stroke-miterlimit:10;" d="
						M42.284,166.922L42.284,166.922c-0.937,0.001-1.693-0.746-1.681-1.659l0.048-3.691c0.012-0.913,0.788-1.661,1.724-1.662l0,0
						c0.937-0.001,1.693,0.746,1.681,1.659l-0.047,3.691C43.996,166.173,43.22,166.921,42.284,166.922z"/>
					
						<path style="fill:none;stroke:#FFFFFF;stroke-width:0.7474;stroke-linecap:round;stroke-linejoin:round;stroke-miterlimit:10;" d="
						M47.959,166.917L47.959,166.917c-0.937,0.001-1.693-0.746-1.681-1.659l0.048-3.691c0.012-0.913,0.788-1.661,1.724-1.662l0,0
						c0.937-0.001,1.693,0.746,1.681,1.659l-0.048,3.691C49.672,166.168,48.896,166.916,47.959,166.917z"/>
					
						<path style="fill:none;stroke:#FFFFFF;stroke-width:0.7474;stroke-linecap:round;stroke-linejoin:round;stroke-miterlimit:10;" d="
						M53.635,166.911L53.635,166.911c-0.937,0.001-1.693-0.746-1.681-1.659l0.048-3.691c0.012-0.913,0.788-1.661,1.724-1.662l0,0
						c0.937-0.001,1.693,0.746,1.681,1.659l-0.047,3.691C55.348,166.163,54.572,166.911,53.635,166.911z"/>
					
						<path style="fill:none;stroke:#FFFFFF;stroke-width:0.7474;stroke-linecap:round;stroke-linejoin:round;stroke-miterlimit:10;" d="
						M59.311,166.906L59.311,166.906c-0.937,0.001-1.693-0.746-1.681-1.659l0.048-3.691c0.012-0.913,0.788-1.661,1.724-1.662l0,0
						c0.937-0.001,1.693,0.746,1.681,1.659l-0.047,3.691C61.023,166.157,60.248,166.906,59.311,166.906z"/>
				</g>
				<g>
					
						<path style="fill:none;stroke:#FFFFFF;stroke-width:0.7474;stroke-linecap:round;stroke-linejoin:round;stroke-miterlimit:10;" d="
						M67.257,166.899L67.257,166.899c-0.937,0.001-1.693-0.746-1.681-1.659l0.048-3.691c0.012-0.913,0.788-1.661,1.724-1.662l0,0
						c0.937-0.001,1.693,0.746,1.681,1.659l-0.047,3.691C68.969,166.15,68.194,166.898,67.257,166.899z"/>
					
						<path style="fill:none;stroke:#FFFFFF;stroke-width:0.7474;stroke-linecap:round;stroke-linejoin:round;stroke-miterlimit:10;" d="
						M72.933,166.894L72.933,166.894c-0.937,0.001-1.693-0.746-1.681-1.659l0.047-3.691c0.012-0.913,0.788-1.661,1.724-1.662l0,0
						c0.937-0.001,1.693,0.746,1.681,1.659l-0.047,3.691C74.645,166.145,73.869,166.893,72.933,166.894z"/>
					
						<path style="fill:none;stroke:#FFFFFF;stroke-width:0.7474;stroke-linecap:round;stroke-linejoin:round;stroke-miterlimit:10;" d="
						M78.609,166.889L78.609,166.889c-0.937,0.001-1.693-0.746-1.681-1.659l0.047-3.691c0.012-0.913,0.788-1.661,1.724-1.662l0,0
						c0.937-0.001,1.693,0.746,1.681,1.659l-0.047,3.691C80.321,166.14,79.545,166.888,78.609,166.889z"/>
					
						<path style="fill:none;stroke:#FFFFFF;stroke-width:0.7474;stroke-linecap:round;stroke-linejoin:round;stroke-miterlimit:10;" d="
						M84.285,166.884L84.285,166.884c-0.937,0.001-1.693-0.746-1.681-1.659l0.047-3.691c0.012-0.913,0.788-1.661,1.724-1.662l0,0
						c0.936-0.001,1.693,0.746,1.681,1.659l-0.048,3.691C85.997,166.135,85.221,166.883,84.285,166.884z"/>
				</g>
				<g>
					
						<path style="fill:none;stroke:#FFFFFF;stroke-width:0.7474;stroke-linecap:round;stroke-linejoin:round;stroke-miterlimit:10;" d="
						M92.609,166.876L92.609,166.876c-0.937,0.001-1.693-0.746-1.681-1.659l0.047-3.691c0.012-0.913,0.788-1.661,1.724-1.662l0,0
						c0.937-0.001,1.693,0.746,1.681,1.659l-0.047,3.69C94.321,166.128,93.546,166.876,92.609,166.876z"/>
					
						<path style="fill:none;stroke:#FFFFFF;stroke-width:0.7474;stroke-linecap:round;stroke-linejoin:round;stroke-miterlimit:10;" d="
						M98.285,166.871L98.285,166.871c-0.937,0.001-1.693-0.746-1.681-1.659l0.047-3.691c0.012-0.913,0.788-1.661,1.724-1.662l0,0
						c0.937-0.001,1.693,0.746,1.681,1.659l-0.048,3.691C99.997,166.122,99.221,166.87,98.285,166.871z"/>
					
						<path style="fill:none;stroke:#FFFFFF;stroke-width:0.7474;stroke-linecap:round;stroke-linejoin:round;stroke-miterlimit:10;" d="
						M103.961,166.866L103.961,166.866c-0.937,0.001-1.693-0.746-1.681-1.659l0.047-3.691c0.012-0.913,0.788-1.661,1.724-1.662l0,0
						c0.937-0.001,1.693,0.746,1.681,1.659l-0.048,3.691C105.673,166.117,104.897,166.865,103.961,166.866z"/>
					
						<path style="fill:none;stroke:#FFFFFF;stroke-width:0.7474;stroke-linecap:round;stroke-linejoin:round;stroke-miterlimit:10;" d="
						M109.636,166.861L109.636,166.861c-0.937,0.001-1.693-0.746-1.681-1.659l0.048-3.691c0.012-0.913,0.788-1.661,1.724-1.662l0,0
						c0.937-0.001,1.693,0.746,1.681,1.659l-0.048,3.691C111.349,166.112,110.573,166.86,109.636,166.861z"/>
				</g>
				
					<path style="fill:none;stroke:#8B7FF7;stroke-width:1.1211;stroke-linecap:round;stroke-linejoin:round;stroke-miterlimit:10;" d="
					M143.22,115.163l-46.541,0.042c-1.561,0.001-2.822-1.243-2.802-2.765l0,0c0.019-1.522,1.313-2.769,2.873-2.771l46.541-0.042
					c1.561-0.001,2.822,1.243,2.802,2.765l0,0C146.074,113.915,144.781,115.162,143.22,115.163z"/>
				<rect x="37.208" y="139.288" style="fill:#FFFFFF;" width="111.12" height="13.564"/>
				
					<rect x="37.303" y="124.68" style="fill:none;stroke:#8DDAE2;stroke-width:1.0516;stroke-linecap:round;stroke-linejoin:round;stroke-miterlimit:10;" width="110.744" height="10.434"/>
			</g>
		</g>
		<path style="fill:#2D1A14;" d="M130.642,150.654L130.642,150.654c-1.02,0-1.855-0.835-1.855-1.855v-5.101
			c0-1.02,0.835-1.855,1.855-1.855l0,0c1.02,0,1.855,0.835,1.855,1.855v5.101C132.497,149.819,131.662,150.654,130.642,150.654z"/>
		<path style="fill:#2D1A14;" d="M137.296,150.654L137.296,150.654c-1.02,0-1.855-0.835-1.855-1.855v-5.101
			c0-1.02,0.835-1.855,1.855-1.855l0,0c1.02,0,1.855,0.835,1.855,1.855v5.101C139.151,149.819,138.316,150.654,137.296,150.654z"/>
		<path style="fill:#2D1A14;" d="M143.788,150.654L143.788,150.654c-1.02,0-1.855-0.835-1.855-1.855v-5.101
			c0-1.02,0.835-1.855,1.855-1.855l0,0c1.02,0,1.855,0.835,1.855,1.855v5.101C145.643,149.819,144.808,150.654,143.788,150.654z"/>
	</g>
	<path style="fill:#2D1A14;" d="M303.867,393.093h-84.72c-5.497,0-9.995-4.498-9.995-9.995l0,0c0-5.497,4.498-9.995,9.995-9.995
		h84.72c5.497,0,9.995,4.498,9.995,9.995l0,0C313.862,388.595,309.364,393.093,303.867,393.093z"/>
	<g>
		
			<text transform="matrix(0.9999 0.0095 -0.0095 0.9999 243.009 387.9499)" style="fill:#FFFFFF; font-family:'Montserrat-Italic'; font-size:12.3183px;">https:///</text>
		<g>
			<g>
				<path style="fill:#FFFFFF;" d="M238.196,388.616h-5.667c-0.501,0-0.906-0.406-0.906-0.906v-4.875
					c0-0.501,0.406-0.906,0.906-0.906h5.667c0.501,0,0.906,0.406,0.906,0.906v4.875C239.102,388.21,238.697,388.616,238.196,388.616
					z"/>
			</g>
			<g>
				<path style="fill:#FFFFFF;" d="M235.285,386.859c-1.072,0-1.945-0.814-1.945-1.814v-5.798c0-1,0.872-1.814,1.945-1.814
					c1.072,0,1.944,0.814,1.944,1.814v5.798C237.23,386.045,236.357,386.859,235.285,386.859z M235.285,378.136
					c-0.657,0-1.191,0.499-1.191,1.112v5.798c0,0.613,0.534,1.111,1.191,1.111c0.657,0,1.191-0.499,1.191-1.111v-5.798
					C236.477,378.634,235.942,378.136,235.285,378.136z"/>
			</g>
		</g>
	</g>
	<circle style="fill:#FFFFFF;" cx="192.639" cy="328.647" r="4.117"/>
	<circle style="fill:#FFFFFF;" cx="181.541" cy="350.486" r="2.327"/>
	<circle style="fill:#FFFFFF;" cx="223.606" cy="360.689" r="3.222"/>
	<circle style="fill:#FFFFFF;" cx="186.016" cy="391.119" r="5.728"/>
	<circle style="fill:#FFFFFF;" cx="197.472" cy="367.133" r="2.148"/>
	<circle style="fill:#FFFFFF;" cx="137.865" cy="405.618" r="1.969"/>
	<circle style="fill:#FFFFFF;" cx="170.801" cy="416" r="4.117"/>
	<circle style="fill:#FFFFFF;" cx="209.465" cy="401.322" r="1.253"/>
	<circle style="fill:#FFFFFF;" cx="352.844" cy="298.039" r="3.58"/>
	<circle style="fill:#FFFFFF;" cx="379.157" cy="281.034" r="2.685"/>
	<circle style="fill:#FFFFFF;" cx="376.472" cy="318.444" r="3.222"/>
	<circle style="fill:#FFFFFF;" cx="337.987" cy="315.759" r="1.253"/>
	<path style="fill:#FFFFFF;" d="M322.414,413.315c0,1.582-1.282,2.864-2.864,2.864c-1.582,0-2.864-1.282-2.864-2.864
		c0-1.582,1.282-2.864,2.864-2.864C321.132,410.451,322.414,411.733,322.414,413.315z"/>
	<circle style="fill:#FFFFFF;" cx="359.825" cy="409.914" r="3.759"/>
	<circle style="fill:#FFFFFF;" cx="257.795" cy="413.136" r="2.685"/>
	<circle style="fill:#FFFFFF;" cx="292.163" cy="351.918" r="1.611"/>
	<path style="fill:#FFFFFF;" d="M316.686,361.941c0,1.483-1.202,2.685-2.685,2.685c-1.483,0-2.685-1.202-2.685-2.685
		c0-1.483,1.202-2.685,2.685-2.685C315.484,359.257,316.686,360.459,316.686,361.941z"/>
	<circle style="fill:#DBCCFF;" cx="456.831" cy="189.788" r="13.29"/>
	<circle style="fill:#DBCCFF;" cx="159.79" cy="54" r="11.238"/>
	<path style="fill:#DBCCFF;" d="M433.07,210.327c0,2.669-2.164,4.833-4.833,4.833c-2.669,0-4.833-2.164-4.833-4.833
		s2.164-4.833,4.833-4.833C430.906,205.494,433.07,207.658,433.07,210.327z"/>
	<circle style="fill:#DBCCFF;" cx="219.5" cy="40" r="4.833"/>
	<path style="fill:#DBCCFF;" d="M318.333,44.167c0,2.669-2.164,4.833-4.833,4.833s-4.833-2.164-4.833-4.833
		c0-2.669,2.164-4.833,4.833-4.833S318.333,41.498,318.333,44.167z"/>
</g>
</svg>
